<?xml version="1.0" encoding="utf-8"?>
<!-- Generator: Adobe Illustrator 26.0.0, SVG Export Plug-In . SVG Version: 6.00 Build 0)  -->
<svg version="1.1" id="Capa_1" xmlns="http://www.w3.org/2000/svg" xmlns:xlink="http://www.w3.org/1999/xlink" x="0px" y="0px"
	 viewBox="0 0 1920 1080" style="enable-background:new 0 0 1920 1080;" xml:space="preserve">
<style type="text/css">
	.st0{opacity:0.2;}
	.st1{fill:#BBC6EA;}
	.st2{fill:#010F35;}
	.st3{fill:#FFFFFF;}
	.st4{fill:#090817;}
	.st5{fill:#3E54AC;}
	.st6{fill:#080717;}
</style>
<g>
	<g class="st0">
		
			<ellipse transform="matrix(0.7071 -0.7071 0.7071 0.7071 -92.4075 846.8104)" class="st1" cx="976" cy="535" rx="448.3" ry="448.3"/>
	</g>
	<g id="XMLID_1477_">
		<g id="XMLID_301_">
			<path class="st2" d="M937,521.6c0,0-22.9-44.4,35.6-88.1c58.5-43.7,12-132.7,68-199.7l103.7,176.9l14.7,125.5L937,521.6z"/>
		</g>
		<g id="XMLID_270_">
			<rect x="1119.1" y="416" class="st3" width="79.6" height="120.1"/>
			<path class="st4" d="M1198.7,538.3h-79.6c-1.2,0-2.2-1-2.2-2.2V416c0-1.2,1-2.2,2.2-2.2h79.6c1.2,0,2.2,1,2.2,2.2v120.1
				C1200.9,537.3,1199.9,538.3,1198.7,538.3z M1121.4,533.9h75.1V418.3h-75.1V533.9z"/>
		</g>
		<g id="XMLID_274_">
			<path class="st5" d="M667.3,571.5c5.9-10.7,14.4-22.7,26.7-33.4c63.2-54.7,141.4-0.4,242.4-38.4c10.6-4,43.6-17.3,80.4-19.2
				c23.8-1.2,47.3,1.1,47.3,1.1c24.3,2.4,34.2,7.3,85.3,6.7c60.8-0.7,75.3-14.1,117.3-5c0,0,11.2,2.3,23.4,6.8
				c51.3,19,102,173.4,123.6,383.8c-242.8,0-485.5,0-728.3,0L667.3,571.5z"/>
		</g>
		<g id="XMLID_280_">
			<path class="st3" d="M1277.5,318.9c0-1.5-0.1-2.4-0.1-4c0.1-1.2,0.1-2.4,0.1-3.6c0,0-0.1-0.1-0.2-0.2
				c-3.8-69.4-59-124.5-126.6-124.5c-65.5,0-119.4,51.8-126.1,118.3c0,0,0,0,0,0c0,0-23.4,141.4,95.8,162.1
				c76,13.2,118.7-33.4,139.8-81.9c2.3-4.2,4.5-8.6,6.4-13c18,6.3,36.6-7.1,36.6-25.9C1303.3,331.7,1291.9,319.8,1277.5,318.9z"/>
			<path class="st4" d="M1120.2,469.3c-62.8-10.9-86-55.3-94.4-90.5c-9.1-37.9-3.3-73.8-3.2-74.2c6.8-68.4,62-120.2,128.3-120.2
				c68.1,0,124.5,55.2,128.7,125.9c0.5,1,0.1,1.6,0.2,6.5c14.6,1.9,25.8,14.5,25.8,29.4c0,19.6-18.7,33.9-37.6,28.6
				c-1.7,3.9-3.6,7.7-5.7,11.4C1235.6,447.7,1186.6,480.9,1120.2,469.3z M1150.8,188.9c-64,0-117.2,50-123.8,116.3
				c-0.1,0.5-5.7,35.6,3.2,72.7c11.8,49.3,42.4,78.6,90.8,87c82.7,14.4,121.6-44.3,137.4-80.6c2.4-4.3,4.5-8.7,6.4-13
				c0.5-1.1,1.7-1.6,2.8-1.2c16.5,5.8,33.6-6.5,33.6-23.8c0-13.3-10.4-24.3-23.7-25.1c-1.2-0.1-2.1-1-2.1-2.2c0-1,0-1.4-0.1-2.8
				c-0.1-1.7,0-1.6,0.1-3.9c-0.1-0.3-0.2-0.5-0.2-0.8C1271.3,242.7,1216.7,188.9,1150.8,188.9z"/>
		</g>
		<g id="XMLID_298_">
			<path class="st2" d="M1215,315.3c-0.6,0-1.1-0.2-1.6-0.6c-21.9-21.3-46.7-12.7-47.8-12.3c-1.2,0.4-2.4-0.2-2.9-1.3
				s0.2-2.5,1.3-2.9c0.3-0.1,28.5-10,52.4,13.3C1218,312.9,1217,315.3,1215,315.3z"/>
		</g>
		<g id="XMLID_294_">
			<g id="XMLID_296_">
				<path class="st6" d="M1182.2,329.8c-3.5-1.9-7.7,0.1-7.7,0.2c-1.1,0.5-2.4,0.1-3-1c-0.6-1.1-0.1-2.4,1-3
					c0.2-0.1,6.2-3.1,11.8-0.1c1.2,0.6,2.4,1.5,3.5,2.2c3.9,2.8,5.6,3.6,8,1.2c0.9-0.8,2.3-0.8,3.2,0.1c0.8,0.9,0.8,2.3-0.1,3.2
					C1192.2,338.9,1186.4,332,1182.2,329.8z"/>
			</g>
			<g id="XMLID_295_">
				<circle class="st2" cx="1177.9" cy="337.6" r="13"/>
			</g>
		</g>
		<g id="XMLID_293_">
			<path class="st2" d="M1052,306.9c-2,0-3-2.5-1.5-3.9c12.5-11.8,31.2-15.2,47.4-7.9c1.1,0.5,1.6,1.8,1.1,3c-0.5,1.1-1.8,1.6-3,1.1
				c-14.7-6.6-31.3-3.4-42.5,7.1C1053.1,306.7,1052.6,306.9,1052,306.9z"/>
		</g>
		<g id="XMLID_276_">
			<g id="XMLID_292_">
				<path class="st6" d="M1056,324.1c-0.8-0.9-0.7-2.4,0.2-3.2c0.9-0.8,2.4-0.7,3.2,0.2c2.2,2.6,3.9,2,8.1-0.3
					c1.2-0.6,2.4-1.3,3.7-1.8c5.9-2.3,11.5,1.3,11.7,1.5c1,0.7,1.3,2.1,0.6,3.1c-0.7,1-2.1,1.3-3.1,0.6c0.2,0-4-2.5-7.6-1
					C1068.4,324.9,1062,331.1,1056,324.1z"/>
			</g>
			<g id="XMLID_285_">
				<circle class="st2" cx="1076.3" cy="331.4" r="13"/>
			</g>
		</g>
		<g id="XMLID_273_">
			<path class="st2" d="M1112.1,362.5c-3.1-5.3,6.2-27.2,10.3-36.4c0.5-1.1,1.8-1.6,3-1.1c1.1,0.5,1.6,1.8,1.1,3
				c-6,13.4-11.7,29.5-10.5,32.2c1.4,2.4,10.6,3.2,16.7,2.9c1.2-0.1,2.3,0.9,2.3,2.1c0.1,1.2-0.9,2.3-2.1,2.4
				C1127.1,367.9,1115.1,367.6,1112.1,362.5z"/>
		</g>
		<g id="XMLID_271_">
			
				<ellipse transform="matrix(1 -7.012892e-03 7.012892e-03 1 -2.5775 8.4085)" class="st1" cx="1197.7" cy="371.7" rx="18" ry="11.7"/>
		</g>
		<g id="XMLID_268_">
			
				<ellipse transform="matrix(1 -7.012892e-03 7.012892e-03 1 -2.5643 7.485)" class="st1" cx="1066" cy="369.4" rx="18" ry="11.7"/>
		</g>
		<g id="XMLID_300_">
			<rect x="1103.8" y="476.1" class="st5" width="94.9" height="29.2"/>
		</g>
		<g id="XMLID_299_">
			<path class="st2" d="M1022.8,318.4c0,0-31.4-40.7-16.8-79.8s45.6-30.7,70.2-55.8s61.7-38.4,82.6-11.2c0,0,68.3-24.4,118.6,15
				s44.7,118.4,43.3,209.4c-1.4,91,67.5,114.9,93.1,185.3c25.6,70.4-24.7,129-24.7,129c-15.2-58.1-30.8-107.2-44.6-146.5
				c-1.1-3.1-18.5-51.6-48.5-69.4c-4.4-2.6-13.5-8.1-25.9-8.4c-11.2-0.3-15.6,3.9-28.5,6.8c-9,2-30,6.7-40-1.6
				c-14.2-11.6-8.1-50,10.1-75.2c19.2-26.6,55.1-43.9,55.1-43.9c1.2,0,22.4,3.5,30.3-8.5c8.1-12.2,6.9-25.1,2.8-30.7
				c-4.1-5.6-16.2-14.7-24-10.8s-15.8,15.3-19.3-1.7c-3.5-17-13.8-118.1-91.7-125.1c0,0-46.7-2.1-75.6,27.9
				C1060.5,253.3,1052.1,316.5,1022.8,318.4z"/>
		</g>
		<g id="XMLID_303_">
			<path class="st2" d="M1125.8,415.1c-1.6,0-2.7-1.7-2-3.2c6.7-14.9,21.2-23.7,36.5-24c0.6,0,2.2,0.5,2.3,2.2c0,1.2-1,2.3-2.2,2.3
				c-13.6,0.2-26.5,8.1-32.5,21.4C1127.4,414.6,1126.6,415.1,1125.8,415.1z"/>
		</g>
		<g id="XMLID_302_">
			<path class="st6" d="M1279,364.5c-1.8,0-2.9-2-1.8-3.5c3-4.2,4-7.8,3-10.8c-1.5-4.6-7.3-6.7-7.4-6.7c-1.9-0.6-2.1-3.3-0.2-4.1
				l17.5-8.3c1.1-0.5,2.4-0.1,3,1.1c0.5,1.1,0.1,2.5-1.1,3l-13.4,6.4c8.1,5.5,8.3,13.7,2.3,22.1
				C1280.3,364.1,1279.7,364.5,1279,364.5z"/>
		</g>
		<g id="XMLID_297_">
			<path class="st3" d="M1079.1,991.2H568.2c-6.4,0-10.8-4.9-9.9-11l63.5-409.8c1-6.1,6.9-11.1,13.4-11.1h513.7
				c6.4,0,10.8,5,9.8,11.1l-66.4,409.8C1091.4,986.2,1085.4,991.2,1079.1,991.2z"/>
			<path class="st2" d="M1079.1,993.4H568.2c-7.6,0-13.3-6-12.1-13.5L619.6,570c1.1-7.2,8.1-13,15.6-13h513.7
				c7.9,0,13.3,6.3,12.1,13.7l-66.4,409.8C1093.5,987.6,1086.5,993.4,1079.1,993.4z M635.2,561.5c-5.4,0-10.4,4.1-11.2,9.2
				l-63.5,409.8c-0.7,4.7,2.6,8.4,7.7,8.4h510.9c5.3,0,10.3-4.1,11.1-9.1l66.4-409.8c0.8-4.7-2.5-8.5-7.6-8.5H635.2z"/>
		</g>
		<g id="XMLID_305_">
			<g id="XMLID_304_">
				<path class="st3" d="M666.6,575c0,0-13.3-33.3-3.1-41.5s18.5,4.7,18.5,4.7s2.4-10.7,12.4-11.2c10-0.5,12.1,10.7,12.1,10.7
					s3.3-11.7,13.3-10.7s11.2,11.7,11.2,11.7s8.5-14.8,19.5-11.7s0.5,50.6-4.8,56.7s-16.2-10.7-16.2-10.7s-11.9,33.1-22.1,2.3
					c0,0-9.5,31.7-21.6,4.4C685.8,579.7,675.6,601.3,666.6,575z"/>
				<path class="st2" d="M685.6,584.3c-2,2.8-5.3,6.1-9.3,5.9c-4.7-0.3-8.6-5-11.8-14.5c-1.5-3.8-13.5-35.1-2.4-44
					c6.4-5.1,13.4-3.9,19.2,2c5.6-11.2,19.5-12.3,25.4-1.8c2.5-4,6.9-7.8,13.3-7.2c6.4,0.6,10,4.8,11.8,8.8
					c3.7-4.6,10.7-11.2,19.2-8.8c2.5,0.7,4.3,2.8,5.3,6.3c4.1,13.7-4.1,48.4-9,54c-1.3,1.5-3,2.2-4.9,2.1c-4.5-0.3-9.5-5.8-12.5-9.7
					c-6.7,14.7-16,18.3-22.6,4C701.3,595.2,692.7,597.3,685.6,584.3z M687.9,578.7c2.8,6.3,5.8,9.9,8.1,9.7
					c3.6-0.2,7.6-8.3,9.3-13.9c0.6-2,3.6-2.2,4.3-0.1c3.5,10.4,6.5,11.5,7.6,11.6c4.1,0,8.8-10,10.2-13.9c0.6-1.7,3-2,4-0.5
					c2.9,4.5,8.4,10.8,11.4,11c0.4,0,0.8,0,1.2-0.5c3.5-4,11.8-37.4,8.1-49.8c-0.4-1.3-1.1-2.9-2.2-3.2
					c-9.1-2.6-16.9,10.5-16.9,10.7c-1.1,1.9-3.9,1.3-4.2-0.9c0-0.4-1.2-8.9-9.2-9.7c-8-0.8-10.8,8.7-10.9,9.1
					c-0.7,2.3-3.9,2.1-4.4-0.2c-0.1-0.4-2-9.3-9.8-8.9c-8.1,0.4-10.2,9.1-10.3,9.4c-0.5,2-3,2.4-4.1,0.7c0,0-3.6-5.5-8.5-6.3
					c-2.3-0.4-4.5,0.3-6.7,2.1c-6.5,5.2-1.1,26.6,3.8,38.9c0,0,0,0.1,0,0.1c3.5,10.2,6.7,11.5,7.9,11.5c2.8,0.2,6.1-4.7,7.2-7.1
					C684.6,577,687.1,577,687.9,578.7z"/>
			</g>
			<g id="XMLID_306_">
				<path class="st2" d="M685.8,581.9c-1.2,0-2.2-0.9-2.2-2.1l-3.2-43.4c-0.1-1.2,0.8-2.3,2.1-2.4c1.2-0.1,2.3,0.8,2.4,2.1l3.2,43.4
					C688.2,580.8,687.1,581.9,685.8,581.9z"/>
			</g>
			<g id="XMLID_307_">
				<path class="st2" d="M706.8,579.3C706.8,579.3,706.8,579.3,706.8,579.3c-1.3,0-2.3-1-2.2-2.3l0.6-41.8c0-1.2,1-2.2,2.2-2.2
					c0,0,0,0,0,0c1.2,0,2.2,1,2.2,2.3l-0.6,41.8C709,578.4,708,579.3,706.8,579.3z"/>
			</g>
			<g id="XMLID_308_">
				<path class="st2" d="M729.5,575.1c-1.3,0-2.3-1.1-2.2-2.4l3-36.6c0.1-1.2,1.2-2.2,2.4-2c1.2,0.1,2.2,1.2,2,2.4l-3,36.6
					C731.7,574.2,730.7,575.1,729.5,575.1z"/>
			</g>
		</g>
		<g id="XMLID_310_">
			<polygon class="st2" points="622.9,373.4 650,453.2 603.6,387.7 			"/>
		</g>
		<g id="XMLID_311_">
			<polygon class="st2" points="754.1,354.6 754.1,460.6 789.1,360.8 			"/>
		</g>
		<g id="XMLID_313_">
			<polygon class="st2" points="603.6,517.8 530.1,487.7 530.1,517.8 			"/>
		</g>
		<g id="XMLID_291_">
			<path class="st3" d="M1038.1,634.9H672.3l-4.1-37.6c-1-8.8-8.9-16-17.8-16H512.2c-8.9,0-15.2,7.2-14.1,16
				c1.1,9,46.1,387.2,45.4,381.3c0.8,6.3,6.6,11.4,13,11.4h513.7c6.4,0,11.2-5.1,10.6-11.4l-29.8-331.9
				C1050.5,640.2,1044.7,634.9,1038.1,634.9z"/>
			<path class="st2" d="M1070.2,992.3H556.5c-7.5,0-14.3-6-15.2-13.4l-45.4-381.3c-1.2-10.1,6.1-18.5,16.3-18.5h138.2
				c10,0,18.9,8.1,20,18l3.9,35.6h363.8c7.7,0,14.5,6.2,15.2,13.9l29.8,331.9C1083.8,986,1078,992.3,1070.2,992.3z M512.2,583.5
				c-7.5,0-12.8,6-11.9,13.5l45.4,381.3c0.6,5.2,5.5,9.4,10.8,9.4h513.7c5.2,0,8.8-4,8.4-9l-29.8-331.9c-0.5-5.4-5.3-9.8-10.7-9.8
				H672.3c-1.1,0-2.1-0.9-2.2-2l-4.1-37.6c-0.8-7.7-7.8-14-15.6-14L512.2,583.5L512.2,583.5z"/>
		</g>
		<g id="XMLID_309_">
			<path class="st3" d="M815.5,88.8c57.2,0,103.6,46.4,103.6,103.6c0,30.5-13.2,58-34.2,76.9l27.9,35.4c1.8,2.3-0.5,5.6-3.3,4.6
				l-56.8-20.2c-67.6,25.9-140.7-24-140.7-96.7C711.9,135.2,758.2,88.8,815.5,88.8z"/>
			<path class="st2" d="M910.4,311.8c-1.3,0,2.4,1.2-57.8-20.2c-69.2,25.9-143-25.5-143-99.1c0-58.4,47.5-105.8,105.8-105.8
				c58.4,0,105.8,47.5,105.8,105.8c0,29.2-12.2,57.2-33.4,77.2l26.6,33.7C917.2,306.8,914.6,311.8,910.4,311.8z M852.5,286.9
				c0.6,0-3.2-1.3,57.5,20.3c0.7,0.2,1.3-0.5,0.8-1.1L883,270.8c-0.7-0.9-0.6-2.3,0.3-3c21.3-19.2,33.5-46.6,33.5-75.3
				c0-55.9-45.5-101.3-101.3-101.3c-55.9,0-101.3,45.5-101.3,101.3s45.5,101.4,101.3,101.4C837.5,293.8,850.9,286.9,852.5,286.9z"/>
		</g>
		<g id="XMLID_314_">
			<path class="st5" d="M818.5,250h-6c-18.8,0-34.1-15.3-34.1-34.1v-48.2c0-18.8,15.3-34.1,34.1-34.1h6c18.8,0,34.1,15.3,34.1,34.1
				v48.2C852.5,234.7,837.3,250,818.5,250z M812.4,151.6c-8.9,0-16.1,7.2-16.1,16.1v48.2c0,8.9,7.2,16.1,16.1,16.1h6
				c8.9,0,16.1-7.2,16.1-16.1v-48.2c0-8.9-7.2-16.1-16.1-16.1L812.4,151.6L812.4,151.6z"/>
		</g>
		<g id="XMLID_318_">
			<path class="st3" d="M1030.5,273c-1.3,0-2.4-1.2-2.2-2.5c0.1-0.6,7.2-57.4,74.6-85.9c1.1-0.5,2.4,0.1,2.9,1.2
				c0.5,1.1-0.1,2.4-1.2,2.9c-33.9,14.3-51.7,35.9-60.6,51.5c-9.7,16.9-11.3,30.6-11.3,30.8C1032.6,272.1,1031.6,273,1030.5,273z"/>
		</g>
		<g id="XMLID_319_">
			<path class="st3" d="M1290.6,295.7c-30.7-6.2-61.3-85-62.6-88.4c-0.4-1.2,0.1-2.4,1.3-2.9c1.2-0.4,2.4,0.1,2.9,1.3
				c8.7,22.4,35.5,80.8,59.3,85.6c1.2,0.2,2,1.4,1.8,2.6C1293,295.2,1291.8,296,1290.6,295.7z"/>
		</g>
		<g id="XMLID_320_">
			<path class="st3" d="M1303.2,269.5c-24.8-1.5-39-33.5-39.6-34.8c-0.5-1.1,0-2.4,1.2-2.9c1.1-0.5,2.4,0,2.9,1.2
				c0.1,0.3,13.7,30.9,35.8,32.1c1.2,0.1,2.2,1.1,2.1,2.4C1305.5,268.6,1304.3,269.6,1303.2,269.5z"/>
		</g>
		<g id="XMLID_317_">
			<path class="st3" d="M963.5,482.4c-1.2,0-2.2-1-2.2-2.2c0-0.9-0.5-22,25-33.3c24-10.6,29.9-41.4,29-54.7
				c-0.1-1.2,0.8-2.3,2.1-2.4c1.2-0.1,2.3,0.9,2.4,2.1c0.5,7.3-0.8,19.4-5.8,31.2c-3.9,9.2-11.6,21.6-25.9,27.9
				c-22.8,10.1-22.4,28.8-22.4,29C965.8,481.3,964.8,482.4,963.5,482.4z"/>
		</g>
		<g id="XMLID_321_">
			<path class="st3" d="M1397.5,633.7c-1.5,0-2.6-1.5-2.1-2.9c9.7-29.9-22-102.3-69-138.3c-48.7-37.2-37.7-90.8-37.5-91.4
				c0.3-1.2,1.5-2,2.7-1.7c1.2,0.3,2,1.5,1.7,2.7c-0.1,0.5-10.5,51.4,35.9,86.9c22.4,17.1,43.2,44,57.3,73.8
				c13.3,28.2,18.2,54.2,13.3,69.5C1399.3,633.1,1398.4,633.7,1397.5,633.7z"/>
		</g>
		<g id="XMLID_322_">
			<path class="st3" d="M957,880.3c0,0-13.9-10.2-33.7-13.7s-26.5-27.7-36.4-24.2c-9.9,3.5,3,32.9,11.9,37.8c0,0-39.7,4.2-53.9,2.1
				s-40.4-10.1-44.3-5.9s-1,14,8.6,17.1c0,0-23.8-7-26.1,2.5c-2.3,9.5,21.2,16.1,21.2,16.1s-15.6-2.8-16,3.8
				c-0.3,6.7,8.3,15.1,29.4,20.3c0,0-17.2-4.6-17.2,6c0,10.5,42.7,22.8,84,28c41.3,5.2,61.5,0.7,72.4-3.8
				c10.9-4.5,23.8-4.9,23.8-4.9s14.5-57.8,0-79.8L957,880.3z"/>
			<path class="st2" d="M918,975c-37.7,0-119.8-14.8-119.8-32.6c0-3.7,1.8-6.7,5.5-8.2c-11.6-4.9-18-11.3-17.7-18.2
				c0.1-2.7,1.8-5,6.1-6c-6.4-3.2-12.8-8.1-11.3-14.4c1.7-7.1,11.3-7.2,18.6-6.2c-3.2-4.4-4.1-10.6-0.5-14.4
				c5.2-5.5,30,2.8,46.3,5.2c10.8,1.6,36.9-0.6,48.1-1.6c-8.2-9.1-18.7-34.2-7.2-38.2c12.2-4.3,18.1,20.6,37.5,24.1
				c18.2,3.2,31.3,11.7,34.1,13.7l23.2,1.4c0.7,0,1.3,0.4,1.7,1c14.9,22.6,0.9,79.2,0.3,81.6c-0.2,1-1.1,1.7-2.1,1.7
				c-0.1,0-12.6,0.4-23,4.7C947.6,972.8,934.4,975,918,975z M804.1,939c-0.6,0.5-1.4,1.3-1.4,3.3c0,7.3,35.1,19.8,82.1,25.8
				c31.8,4,55.7,2.8,71.3-3.7c8.9-3.7,18.9-4.7,22.9-5c2.1-9.2,12.1-56,0.5-75.5c-24.6-1.5-23.1-1.2-23.8-1.8
				c-0.1-0.1-13.8-9.9-32.8-13.3c-19.9-3.5-27.8-26.9-35.2-24.3c-0.4,0.2-1.8,0.6-2,3.8c-0.8,9.1,8.3,26.7,14.3,30
				c1.9,1,1.3,4-0.8,4.2c-1.6,0.2-40.2,4.2-54.5,2.1c-12.1-1.8-39.3-9.3-42.4-6.6c-2.6,2.8-0.6,10.8,7.7,13.5
				c1.2,0.4,1.8,1.6,1.4,2.8s-1.6,1.8-2.8,1.5c-5.9-1.7-21.9-4.8-23.3,0.8c-1.4,5.5,12.7,11.4,19.7,13.4c1.2,0.3,1.8,1.5,1.6,2.7
				s-1.4,1.9-2.6,1.7c-4-0.7-10.6-1-12.8,0.7c-2.4,1.9,1.2,12.5,26.7,18.9c0.2,0.1,0.4,0.1,0.5,0.1c1.2,0.3,1.9,1.5,1.6,2.7
				c-0.3,1.2-1.5,1.9-2.7,1.6C813.7,937.7,807,936.8,804.1,939z"/>
		</g>
		<g id="XMLID_275_">
			<path class="st5" d="M945.4,875.3c31.8-7.3,85.4-19.7,152.8-35.6c90.7-21.3,136.1-32.5,140.3-56.8c2.7-15.5-13-24.5-20.8-41.6
				c-15.4-33.9-4.7-93.4,96.8-205.2c0,0,105,236.8,99.3,337.8s-468.9,96.2-468.9,96.2C945,938.5,945.2,906.9,945.4,875.3z"/>
		</g>
		<g id="XMLID_316_">
			<path class="st2" d="M1265.6,799c-1.2,0-2.2-0.9-2.2-2.1L1249.8,574c-0.1-1.2,0.9-2.3,2.1-2.4c1.3-0.1,2.3,0.9,2.4,2.1
				l13.6,222.9C1267.9,798,1266.9,799,1265.6,799z"/>
		</g>
		<g id="XMLID_315_">
			<path class="st2" d="M1115.8,837.8c-2.6,0-3.1-3.8-0.5-4.4c160.8-39.6,150.4-37.2,151.2-37c33.8,8.2,67.7,20.4,100.6,37.2
				c1.1,0.6,1.5,1.9,1,3c-0.6,1.1-1.9,1.5-3,1c-31.4-16-64.6-28.3-99.1-36.7C1109.5,839.4,1116.3,837.8,1115.8,837.8z"/>
		</g>
		<g id="XMLID_324_">
			<path class="st2" d="M862.7,947c-8.2,0-36.7-6.2-47.8-8.9c-1.2-0.3-1.9-1.5-1.6-2.7s1.5-1.9,2.7-1.6c0.3,0.1,30.2,7.4,46.9,8.8
				c1.2,0.1,2.2,1.2,2,2.4C864.8,946.1,863.9,947,862.7,947z"/>
		</g>
		<g id="XMLID_325_">
			<path class="st2" d="M858.3,923.2c-23.2-2.4-57.6-9.8-57.9-9.9c-1.2-0.3-2-1.5-1.7-2.7c0.3-1.2,1.5-2,2.7-1.7
				c0.3,0.1,34.5,7.4,57.4,9.8c1.2,0.1,2.1,1.2,2,2.5C860.6,922.4,859.6,923.3,858.3,923.2z"/>
		</g>
		<g id="XMLID_326_">
			<path class="st2" d="M862.7,904.7c-18.2,0-55.4-9.3-57-9.7c-1.2-0.3-1.9-1.5-1.6-2.7c0.3-1.2,1.5-1.9,2.7-1.6
				c0.4,0.1,38.3,9.5,55.9,9.5c1.2,0,2.2,1,2.2,2.2S863.9,904.7,862.7,904.7z"/>
		</g>
	</g>
</g>
</svg>
